<svg xmlns="http://www.w3.org/2000/svg" viewBox="0 0 96 128" role="img" aria-label="Corredor HydroRun">
  <defs>
    <linearGradient id="body" x1="0" x2="1" y1="0" y2="1">
      <stop offset="0" stop-color="#67e8f9"/>
      <stop offset="1" stop-color="#0284c7"/>
    </linearGradient>
  </defs>
  <circle cx="50" cy="20" r="13" fill="#0ea5e9" stroke="#fff" stroke-width="5"/>
  <path fill="#e0f2fe" d="M44 15c4-5 11-5 15 0-3-1-7-1-11 2-2 1-3 0-4-2Z"/>
  <path fill="url(#body)" stroke="#fff" stroke-linecap="round" stroke-linejoin="round" stroke-width="6" d="M47 36c12 1 22 10 24 22 1 7-3 14-10 16l-13 4c-10 3-21-3-23-14-2-13 8-29 22-28Z"/>
  <path fill="none" stroke="#0369a1" stroke-linecap="round" stroke-width="8" d="M62 57c10 3 17 9 22 17"/>
  <path fill="none" stroke="#fff" stroke-linecap="round" stroke-width="4" d="M62 57c10 3 17 9 22 17"/>
  <path fill="none" stroke="#0369a1" stroke-linecap="round" stroke-width="8" d="M33 58c-9 4-15 10-20 18"/>
  <path fill="none" stroke="#fff" stroke-linecap="round" stroke-width="4" d="M33 58c-9 4-15 10-20 18"/>
  <path fill="none" stroke="#0369a1" stroke-linecap="round" stroke-width="9" d="M45 77c-1 14-8 23-18 34"/>
  <path fill="none" stroke="#fff" stroke-linecap="round" stroke-width="5" d="M45 77c-1 14-8 23-18 34"/>
  <path fill="none" stroke="#0369a1" stroke-linecap="round" stroke-width="9" d="M58 76c8 9 15 18 22 30"/>
  <path fill="none" stroke="#fff" stroke-linecap="round" stroke-width="5" d="M58 76c8 9 15 18 22 30"/>
  <ellipse cx="27" cy="115" rx="15" ry="6" fill="#0369a1"/>
  <ellipse cx="80" cy="110" rx="14" ry="6" fill="#0369a1"/>
  <circle cx="41" cy="53" r="5" fill="#e0f2fe"/>
</svg>
